HIERARCHY
ROOT Hips
{
	OFFSET -0.001795 -0.223333 0.028219
	CHANNELS 6 Xposition Yposition Zposition Zrotation Yrotation Xrotation 
	JOINT LeftUpLeg
	{
		OFFSET 0.069520 -0.091406 -0.006815
		CHANNELS 3 Zrotation Yrotation Xrotation
		JOINT LeftLeg
		{
			OFFSET 0.034277 -0.375199 -0.004496
			CHANNELS 3 Zrotation Yrotation Xrotation
			JOINT LeftFoot
			{
				OFFSET -0.013596 -0.397961 -0.043693
				CHANNELS 3 Zrotation Yrotation Xrotation
				JOINT LeftToe
				{
					OFFSET 0.026358 -0.055791 0.119288
					CHANNELS 3 Zrotation Yrotation Xrotation
					End Site
					{
						OFFSET 0.000000 0.000000 0.000000
					}
				}
			}
		}
	}
	JOINT RightUpLeg
	{
		OFFSET -0.067670 -0.090522 -0.004320
		CHANNELS 3 Zrotation Yrotation Xrotation
		JOINT RightLeg
		{
			OFFSET -0.038290 -0.382569 -0.008850
			CHANNELS 3 Zrotation Yrotation Xrotation
			JOINT RightFoot
			{
				OFFSET 0.015774 -0.398415 -0.042312
				CHANNELS 3 Zrotation Yrotation Xrotation
				JOINT RightToe
				{
					OFFSET -0.025372 -0.048144 0.123348
					CHANNELS 3 Zrotation Yrotation Xrotation
					End Site
					{
						OFFSET 0.000000 0.000000 0.000000
					}
				}
			}
		}
	}
	JOINT Spine
	{
		OFFSET -0.002533 0.108963 -0.026696
		CHANNELS 3 Zrotation Yrotation Xrotation
		JOINT Spine1
		{
			OFFSET 0.005487 0.135180 0.001092
			CHANNELS 3 Zrotation Yrotation Xrotation
			JOINT Spine2
			{
				OFFSET 0.001457 0.052922 0.025425
				CHANNELS 3 Zrotation Yrotation Xrotation
				JOINT Neck
				{
					OFFSET -0.002778 0.213870 -0.042857
					CHANNELS 3 Zrotation Yrotation Xrotation
					JOINT Head
					{
						OFFSET 0.005152 0.064970 0.051349
						CHANNELS 3 Zrotation Yrotation Xrotation
						End Site
						{
							OFFSET 0.000000 0.000000 0.000000
						}
					}
				}
				JOINT LeftShoulder
				{
					OFFSET 0.078845 0.121749 -0.034090
					CHANNELS 3 Zrotation Yrotation Xrotation
					JOINT LeftArm
					{
						OFFSET 0.090977 0.030469 -0.008868
						CHANNELS 3 Zrotation Yrotation Xrotation
						JOINT LeftForeArm
						{
							OFFSET 0.259612 -0.012772 -0.027456
							CHANNELS 3 Zrotation Yrotation Xrotation
							JOINT LeftHand
							{
								OFFSET 0.249234 0.008986 -0.001171
								CHANNELS 3 Zrotation Yrotation Xrotation
								End Site
								{
									OFFSET 0.000000 0.000000 0.000000
								}
							}
						}
					}
				}
				JOINT RightShoulder
				{
					OFFSET -0.081759 0.118833 -0.038615
					CHANNELS 3 Zrotation Yrotation Xrotation
					JOINT RightArm
					{
						OFFSET -0.096012 0.032551 -0.009143
						CHANNELS 3 Zrotation Yrotation Xrotation
						JOINT RightForeArm
						{
							OFFSET -0.253742 -0.013329 -0.021401
							CHANNELS 3 Zrotation Yrotation Xrotation
							JOINT RightHand
							{
								OFFSET -0.255298 0.007772 -0.005559
								CHANNELS 3 Zrotation Yrotation Xrotation
								End Site
								{
									OFFSET 0.000000 0.000000 0.000000
								}
							}
						}
					}
				}
			}
		}
	}
}
MOTION
Frames: 13
Frame Time: 0.050000
0.034756 1.381448 -0.728786 -2.089372 -5.155168 0.434074 13.014721 0.602146 -18.585883 -2.687999 0.501988 28.672621 -1.328816 -5.826437 -5.620402 0.000000 0.000000 0.000000 -11.999243 0.447989 -10.699583 3.689131 0.172974 24.428206 -3.060498 -6.326772 -3.226362 0.000000 0.000000 0.000000 5.526534 -1.684209 20.188603 -8.317306 2.596208 -23.046148 -3.095132 4.700641 24.452970 13.974038 -4.062511 -36.243479 0.000000 0.000000 0.000000 -22.876557 -12.180391 5.142445 -40.513713 -14.021534 -1.998216 -12.201254 -21.703382 3.145099 0.000000 0.000000 0.000000 31.718517 4.497706 1.726659 46.741008 20.864986 0.972880 8.802769 23.561575 2.737172 0.000000 0.000000 0.000000
0.051432 1.376885 -0.725022 -2.212410 -5.517447 0.711979 12.465015 0.590263 -20.301613 -3.007210 0.729266 31.175905 -0.922250 -5.433525 -6.694851 0.000000 0.000000 0.000000 -12.640014 0.441209 -10.770706 3.276321 0.351701 25.042241 -3.055468 -6.276525 -3.274373 0.000000 0.000000 0.000000 5.391927 -1.730674 21.333493 -8.349542 2.570689 -23.575093 -3.034192 4.706456 24.843129 14.266540 -4.338497 -35.810638 0.000000 0.000000 0.000000 -23.244029 -12.677131 5.540378 -40.267001 -13.610900 -2.175248 -11.563347 -21.815754 3.043931 0.000000 0.000000 0.000000 31.804557 4.794698 1.869352 46.205378 20.966425 0.941730 8.084715 23.751116 2.616993 0.000000 0.000000 0.000000
0.068924 1.373519 -0.720560 -2.468564 -6.313844 1.294868 11.868781 0.587579 -22.030031 -3.374712 1.048842 33.004795 -0.395383 -4.394081 -7.310825 0.000000 0.000000 0.000000 -13.291323 0.464921 -10.896160 2.616774 0.608771 24.841533 -2.946398 -6.277843 -2.563936 0.000000 0.000000 0.000000 5.386169 -1.767609 22.278626 -8.523315 2.610925 -23.256547 -2.910503 4.794136 24.481616 15.467752 -4.940032 -35.826650 0.000000 0.000000 0.000000 -23.351975 -13.325623 6.046339 -40.489138 -13.584466 -2.197444 -10.460092 -20.591332 2.666836 0.000000 0.000000 0.000000 32.082270 5.069431 1.882939 45.387763 20.973763 0.948089 7.810525 23.780556 2.545126 0.000000 0.000000 0.000000
0.086405 1.371516 -0.716115 -2.552310 -7.331033 1.548199 11.301870 0.592108 -23.305129 -3.969351 1.549432 35.023995 0.040940 -3.639830 -8.114467 0.000000 0.000000 0.000000 -14.321827 0.485552 -10.667461 2.719531 0.623748 24.463545 -2.810836 -6.091189 -2.115073 0.000000 0.000000 0.000000 5.274389 -1.782300 23.672122 -8.678236 2.609666 -23.716620 -2.865399 4.752645 24.710836 15.789725 -5.343805 -35.179471 0.000000 0.000000 0.000000 -23.249365 -13.914127 6.613059 -40.090436 -13.466183 -2.317581 -10.214277 -20.694290 2.643353 0.000000 0.000000 0.000000 32.416814 5.274842 1.758325 44.615932 21.052486 0.960520 7.359350 24.398514 2.508906 0.000000 0.000000 0.000000
0.103241 1.371166 -0.711776 -2.708689 -8.975553 2.197330 10.804629 0.643345 -24.227198 -4.469080 2.111088 36.062745 0.462342 -2.491712 -8.292707 0.000000 0.000000 0.000000 -15.033824 0.562309 -11.203078 2.798843 0.658997 23.648699 -2.757820 -6.397207 -1.097470 0.000000 0.000000 0.000000 5.212718 -1.719324 24.253950 -8.926783 2.646463 -23.504708 -2.769067 4.544698 24.284725 15.689250 -5.616477 -34.270946 0.000000 0.000000 0.000000 -23.623398 -14.286104 7.232284 -39.752932 -13.743901 -2.285272 -9.571662 -19.739045 2.409062 0.000000 0.000000 0.000000 32.379321 5.923792 1.670855 44.509200 20.664661 1.015950 7.009480 24.936843 2.455600 0.000000 0.000000 0.000000
0.118848 1.371574 -0.707568 -2.755345 -10.584561 2.596742 10.039861 0.606018 -24.580457 -4.802959 2.605715 36.828540 0.812691 -1.677534 -8.807079 0.000000 0.000000 0.000000 -15.996573 0.636710 -11.511779 3.242177 0.554167 22.476204 -2.602178 -6.458392 -0.118117 0.000000 0.000000 0.000000 4.801034 -1.559218 24.771574 -8.677100 2.538901 -23.861953 -2.978325 4.616445 24.047072 15.280466 -5.661434 -33.576417 0.000000 0.000000 0.000000 -23.822953 -14.514509 7.673608 -39.270075 -13.450779 -2.428580 -9.334545 -19.092181 2.288129 0.000000 0.000000 0.000000 33.255157 6.423739 1.586813 44.101630 19.825264 0.835772 6.743956 25.687840 2.450734 0.000000 0.000000 0.000000
0.132857 1.372233 -0.703635 -3.018342 -12.638794 2.696013 9.728710 0.684074 -24.287196 -5.476507 3.307814 36.973240 1.262589 -0.416498 -9.058160 0.000000 0.000000 0.000000 -16.267471 0.754125 -11.457838 3.211020 0.624934 21.656776 -2.306958 -6.074541 0.589369 0.000000 0.000000 0.000000 4.637318 -1.416565 25.380499 -8.904932 2.560587 -24.007172 -3.007236 4.498666 23.684030 15.016779 -5.797315 -32.947225 0.000000 0.000000 0.000000 -23.669542 -14.639851 8.128197 -39.068988 -13.803226 -2.390200 -9.036796 -18.482560 2.166214 0.000000 0.000000 0.000000 33.447683 7.052345 1.399134 44.568577 19.102217 0.851472 6.293700 26.423925 2.378916 0.000000 0.000000 0.000000
0.145183 1.373351 -0.700521 -3.170347 -15.031389 2.675660 9.217917 0.719734 -23.700818 -5.745183 3.856312 36.830265 1.868898 1.251420 -9.506268 0.000000 0.000000 0.000000 -16.768139 0.887746 -11.585499 3.202483 0.658193 20.387251 -1.801322 -5.529295 1.801037 0.000000 0.000000 0.000000 4.209656 -1.171973 25.879349 -8.751620 2.474505 -24.175309 -3.168522 4.747803 23.497183 15.005869 -5.966881 -32.670676 0.000000 0.000000 0.000000 -23.363836 -14.823619 8.543788 -38.738969 -13.674230 -2.496115 -8.756139 -18.205545 2.087290 0.000000 0.000000 0.000000 33.986182 7.391978 1.068495 44.428411 18.282366 0.753712 6.622330 27.726438 2.534774 0.000000 0.000000 0.000000
0.155837 1.375094 -0.698904 -3.433522 -17.370118 2.773263 9.045832 0.806039 -22.838408 -6.116504 4.357970 36.023087 2.220028 2.386224 -9.696193 0.000000 0.000000 0.000000 -16.674590 1.033734 -11.183871 2.960089 0.679623 18.540817 -1.316881 -4.713793 2.296327 0.000000 0.000000 0.000000 3.811076 -0.925058 25.938653 -8.404976 2.349892 -24.185983 -3.499056 4.870338 23.101751 15.176100 -6.167287 -32.634905 0.000000 0.000000 0.000000 -22.903402 -14.430946 8.597823 -38.446071 -13.107073 -2.694483 -8.573396 -18.436588 2.090647 0.000000 0.000000 0.000000 34.230549 7.560486 0.540678 45.009144 17.474586 0.745814 7.551501 28.832357 2.806101 0.000000 0.000000 0.000000
0.164662 1.377461 -0.698835 -3.811773 -20.265494 2.810262 8.913223 0.952595 -22.190995 -6.435357 5.043516 35.945864 2.698287 3.932567 -9.750048 0.000000 0.000000 0.000000 -16.713662 1.193903 -11.415120 2.948364 0.696936 17.380235 -0.744544 -4.053050 3.231578 0.000000 0.000000 0.000000 3.296989 -0.611879 26.027915 -7.960272 2.182069 -24.506568 -3.713509 5.036348 23.005067 15.190124 -6.190022 -33.349544 0.000000 0.000000 0.000000 -22.094473 -14.277343 8.850834 -38.677763 -12.701605 -2.912008 -8.754171 -18.277683 2.109432 0.000000 0.000000 0.000000 35.372298 8.138149 0.040468 44.534086 16.455896 0.685607 9.046286 30.231504 3.238678 0.000000 0.000000 0.000000
0.171412 1.379520 -0.700106 -4.054589 -22.675365 2.747124 8.859195 1.061815 -21.495164 -6.900838 5.634574 35.441402 2.855862 4.653008 -9.471570 0.000000 0.000000 0.000000 -16.418743 1.310631 -11.300720 2.547739 0.772170 16.409183 -0.244239 -3.211177 3.550625 0.000000 0.000000 0.000000 2.930598 -0.349044 26.339871 -7.526452 2.036982 -24.663671 -4.113849 4.754135 22.603109 15.094787 -6.201200 -33.716138 0.000000 0.000000 0.000000 -21.515383 -13.739005 8.879437 -38.346856 -12.063986 -3.129839 -9.235104 -18.269298 2.189619 0.000000 0.000000 0.000000 35.537013 8.318999 -0.743456 45.577477 15.111941 0.587622 10.652858 31.643396 3.712042 0.000000 0.000000 0.000000
0.176323 1.381030 -0.702130 -4.370057 -26.051741 2.699342 8.997226 1.289183 -20.732765 -7.300354 6.432362 35.157409 3.599754 6.923610 -9.433681 0.000000 0.000000 0.000000 -16.002626 1.462275 -11.752161 2.147022 0.925474 16.137393 0.283938 -2.422434 3.929073 0.000000 0.000000 0.000000 2.194468 0.054442 26.285215 -6.779821 1.787332 -25.036230 -4.325706 4.652039 22.614452 15.772337 -6.460703 -35.021917 0.000000 0.000000 0.000000 -20.908724 -13.124922 9.011264 -38.635272 -11.240134 -3.494744 -9.983389 -17.756082 2.245632 0.000000 0.000000 0.000000 36.529481 8.610404 -1.868178 45.542894 13.840086 0.577141 13.887189 33.176899 4.637997 0.000000 0.000000 0.000000
0.179454 1.382126 -0.704720 -4.711610 -29.641099 2.414621 9.088865 1.468756 -19.560730 -7.541306 7.146699 34.653714 4.042239 8.447611 -8.717159 0.000000 0.000000 0.000000 -15.320204 1.588148 -11.653180 1.823943 1.107452 16.313993 0.523540 -1.453608 3.260159 0.000000 0.000000 0.000000 1.838548 0.351255 25.889757 -6.346363 1.613989 -24.845463 -4.425840 4.403506 22.474757 16.756063 -7.080949 -35.285395 0.000000 0.000000 0.000000 -20.051906 -12.554830 9.137710 -38.858917 -10.248667 -3.867887 -10.668737 -17.794983 2.362618 0.000000 0.000000 0.000000 36.609342 8.594692 -3.295622 47.048762 11.957345 0.378769 16.833247 34.892344 5.514622 0.000000 0.000000 0.000000
